<?xml version="1.0" encoding="UTF-8"?>
<svg id="Layer_1" data-name="Layer 1" xmlns="http://www.w3.org/2000/svg" viewBox="0 0 48.21 83.15">
  <defs>
    <style>
      .cls-1 {
        fill: #1e3151;
        stroke-width: 0px;
      }
    </style>
  </defs>
  <path class="cls-1" d="m24.1,0C10.8,0,0,10.78,0,24.1c0,11.97,8.74,21.9,20.17,23.78v31.78h.07c.02,1.93,1.62,3.5,3.55,3.5s3.51-1.56,3.53-3.5h.09v-31.7c11.75-1.62,20.79-11.68,20.79-23.86C48.21,10.78,37.41,0,24.1,0Zm0,40.01c-8.78,0-15.92-7.12-15.92-15.92s7.14-15.92,15.92-15.92,15.93,7.12,15.93,15.92-7.14,15.92-15.93,15.92Z"/>
</svg>